<svg xmlns="http://www.w3.org/2000/svg" xmlns:xlink="http://www.w3.org/1999/xlink" width="556.52" height="63.356" viewBox="0 0 147.246 16.763" xmlns:v="https://vecta.io/nano"><path d="M122.597 10.837c0 3.083-2.499 5.582-5.582 5.582s-5.582-2.499-5.582-5.582 2.499-5.582 5.582-5.582 5.582 2.499 5.582 5.582z" fill="red"/><g fill="#fff"><path d="M7.948 16.76q-1.648 0-3.093-.632-1.422-.655-2.529-1.806Q1.242 13.17.61 11.658 0 10.145 0 8.429 0 6.691.61 5.2q.632-1.513 1.716-2.642Q3.409 1.407 4.854.775 6.299.12 7.948.12q3.071 0 5.215 2.009.452.429.79.926.339.474.339 1.039 0 .542-.384.926-.361.384-.881.384-.542 0-.903-.384-.361-.406-.361-.903 0-.452.316-.768.135-.135.023-.294-.7-.722-1.806-1.129-1.084-.406-2.348-.406-1.829 0-3.296.903-1.468.903-2.326 2.484-.835 1.558-.835 3.522 0 1.942.835 3.5.858 1.535 2.326 2.438 1.468.881 3.296.881 1.626 0 3.003-.722 1.4-.745 2.28-2.077.09-.158.226-.226.158-.068.316-.068.203 0 .361.135.339.271.339.677 0 .226-.158.474-1.129 1.58-2.822 2.461-1.671.858-3.545.858zm8.527-.022q-.271.023-.474-.158-.203-.181-.203-.474 0-.294.203-.497.203-.203.474-.158l.993.068h.045q.158 0 .158-.181V1.407q0-.226-.203-.181l-1.016.068q-.294.023-.497-.158-.203-.203-.203-.497 0-.294.203-.474.203-.203.474-.158.316.023.7.068.384.023.745.045.519.023.858.384.361.339.361.835v5.938q0 .135.068.158.09.023.181-.068 2.438-2.303 4.493-2.303 2.89 0 2.89 3.883v6.39q0 .226.226.181l.948-.068q.271-.045.474.158.203.203.203.497 0 .294-.203.474-.203.181-.474.158-.745-.068-1.151-.09-.406-.023-.745-.023-.429 0-.835.023-.384.045-1.061.09-.271.023-.474-.158-.203-.181-.203-.474 0-.294.203-.497.203-.203.474-.158l.971.068h.045q.158 0 .158-.181V8.926q0-1.197-.406-1.761-.406-.564-1.31-.564-1.964 0-4.358 2.19-.113.113-.113.271v6.277q0 .203.203.181l.971-.068q.271-.045.474.158.203.203.203.497 0 .294-.203.474-.203.181-.474.158-.722-.068-1.129-.09-.406-.023-.768-.023-.406 0-.813.023-.406.045-1.084.09z"/><use xlink:href="#B"/><path d="M43.054 2.83q-.497 0-.858-.361-.361-.361-.361-.858 0-.519.361-.858.361-.361.858-.361.519 0 .858.361.361.339.361.858 0 .497-.361.858-.339.361-.858.361zm-1.987 13.93q-.316.023-.564-.203-.226-.203-.226-.542 0-.339.226-.564.248-.226.564-.181.248.023.497.045.271.023.542.068.226 0 .226-.203V6.668q0-.203-.203-.203-.271.023-.542.045-.271 0-.519.045-.316.023-.564-.181-.226-.226-.226-.564 0-.316.203-.519.226-.226.519-.226 0 0-.068-.023-.023 0-.068 0 .045 0 .068 0 .429.045.948.09.542.045.677.045.519 0 .858.361.361.339.361.858v8.783q0 .203.226.203.271-.045.542-.068.271-.023.497-.045.316-.045.542.181.226.226.226.564 0 .339-.226.542-.226.226-.542.203-.452-.045-.993-.09-.519-.045-.993-.045-.474 0-1.016.045-.519.045-.971.09z"/><use xlink:href="#C"/><path d="M64.706 16.738q-.294.023-.542-.203-.248-.203-.248-.519 0-.339.226-.564.248-.226.564-.181.203.023.429.045.248.023.497.045h.045q.158 0 .158-.203V1.791q0-.203-.203-.203-.226.023-.452.045-.203.023-.406.068-.339.045-.61-.181-.248-.248-.248-.587 0-.361.248-.587.271-.248.61-.203.452.068.948.135.519.045.971.045h3.996q2.958 0 4.538 1.264 1.603 1.264 1.603 3.545 0 2.28-1.58 3.545-1.558 1.264-4.38 1.264h-3.342q-.203 0-.203.203v5.057q0 .203.203.203l1.377-.135q.316-.045.542.203.226.226.226.542 0 .316-.248.519-.226.226-.519.203-.677-.045-1.197-.09-.497-.023-.948-.023-.452 0-.926.023-.474.045-1.129.09zm2.822-8.241h3.545q4.358 0 4.358-3.364 0-1.626-1.084-2.484-1.061-.881-3.138-.903h-3.68q-.203 0-.203.203v6.344q0 .203.203.203zm13.309 8.241q-1.468 0-2.416-.835-.926-.858-.926-2.167 0-1.671 1.106-2.574 1.129-.926 2.867-.926 1.49 0 3.251.722.045.023.113.023.135 0 .135-.158v-1.13q0-1.558-.835-2.416-.813-.858-2.077-.858-.835 0-1.761.406-.158.09-.09.271.09.203.09.452 0 .452-.339.79-.316.339-.813.339-.542 0-.858-.361-.316-.384-.316-.881 0-.519.361-.948.587-.677 1.468-1.039.903-.384 1.919-.384 2.235 0 3.432 1.219 1.219 1.197 1.219 3.409v5.577q0 .203.203.203.294-.023.564-.09.271-.09.519-.09.294 0 .474.203.203.203.203.519 0 .339-.248.542-.248.226-.564.181-.294-.068-.632-.113-.339-.045-.7-.068-.519 0-.881-.361-.339-.361-.339-.858 0-.023-.023-.023 0 0 0 0-.068 0-.226.113-.79.632-1.716.971-.903.339-2.167.339zm0-1.355q1.332-.045 2.235-.429.926-.406 1.806-1.332.09-.113.09-.248v-.813q0-.158-.135-.226-.497-.271-1.287-.542-.768-.271-1.987-.271-1.264 0-2.009.587-.722.587-.722 1.626 0 .722.564 1.197.564.452 1.445.452z"/><use xlink:href="#B" x="59.707"/><use xlink:href="#C" x="52.829"/><path d="M116.97 16.76q-1.648 0-3.003-.79-1.355-.79-2.167-2.122-.79-1.332-.79-2.935 0-1.626.79-2.935.813-1.332 2.167-2.122 1.355-.79 3.003-.79 1.219 0 2.303.474 1.084.452 1.897 1.264.813.79 1.264 1.851.474 1.061.474 2.258 0 1.197-.474 2.258-.452 1.061-1.264 1.874-.813.79-1.897 1.264-1.084.452-2.303.452zm0-1.332q1.287 0 2.303-.587 1.039-.61 1.626-1.626.61-1.039.61-2.303 0-1.264-.61-2.28-.61-1.016-1.648-1.626-1.016-.61-2.28-.61-1.287 0-2.326.61-1.016.587-1.626 1.603-.61 1.016-.61 2.303 0 1.264.61 2.303.61 1.016 1.648 1.626 1.039.587 2.303.587zm7.329 1.31q-.271.023-.474-.158-.203-.181-.203-.474 0-.294.203-.497.203-.203.474-.158l.993.068h.045q.158 0 .158-.181v-8.85q0-.226-.203-.181l-1.016.068q-.271.023-.497-.158-.203-.203-.203-.497 0-.294.203-.497.226-.203.474-.158.316.023.7.068.384.023.745.045.519.023.858.384.361.361.361.858v.858q0 .135.068.158.09.023.181-.068 2.438-2.303 4.493-2.303 2.89 0 2.89 3.883v6.39q0 .226.226.181l.948-.068q.271-.045.474.158.203.203.203.497 0 .294-.203.474-.203.181-.474.158-.722-.068-1.129-.09-.406-.023-.768-.023-.406 0-.813.023-.406.045-1.084.09-.271.023-.474-.158-.203-.181-.203-.474 0-.294.203-.497.203-.203.474-.158l.971.068h.045q.158 0 .158-.181V8.926q0-1.197-.406-1.761-.406-.564-1.31-.564-1.964 0-4.358 2.19-.113.113-.113.271v6.277q0 .203.203.181l.971-.068q.271-.045.474.158.203.203.203.497 0 .294-.203.474-.203.181-.474.158-.722-.068-1.129-.09-.406-.023-.768-.023-.406 0-.813.023-.406.045-1.084.09z"/><use xlink:href="#C" x="90.488"/><path d="M119.893 9a1.2 1.2 0 0 1-2.4 0 1.2 1.2 0 0 1 2.4 0z"/><path d="M118.363 9.498a.72.72 0 0 1-.132.998l-2.887 2.939c-.307.313-.805.313-1.112 0a.72.72 0 0 1 .132-.998l2.887-2.939c.307-.313.805-.313 1.112 0z"/></g><defs ><path id="B" d="M30.352 16.76q-.271.023-.497-.181-.203-.181-.203-.474 0-.316.203-.497.203-.203.497-.158l1.061.068h.045q.158 0 .158-.181v-8.67q0-.203-.203-.203-.271.023-.542.045-.271 0-.519.045-.316.023-.564-.181-.226-.226-.226-.564 0-.316.248-.542.248-.226.542-.181.474.045.722.068.271.023.542.023.271 0 .722 0 .316 0 .497.203.203.203.203.497v1.806q0 .181.09.181.09 0 .158-.113 1.49-2.484 3.974-2.8.135-.023.271-.023.135-.023.271-.023.768 0 1.242.361.474.339.474.993 0 .452-.339.79-.316.316-.835.316-.429 0-.7-.226-.248-.248-.339-.497-.068-.181-.226-.181-.881 0-1.671.632-.768.61-1.377 1.58-.587.948-.948 2.009-.045.09-.045.248v4.403q0 .203.203.181l1.084-.068q.294-.045.497.158.203.181.203.497 0 .294-.226.474-.203.203-.474.181-.7-.068-1.151-.113-.429-.023-.835-.023-.474 0-.903.023-.429.045-1.084.113z"/><path id="C" d="M51.881 16.738q-.858 0-1.716-.203-.858-.181-1.58-.519-.722-.361-1.174-.858-.429-.497-.429-1.084 0-.497.339-.835.339-.339.813-.339.519 0 .835.361.316.361.316.813 0 .203-.068.406-.023.045-.023.09 0 .113.113.181.519.226 1.174.429.655.203 1.4.203 1.535 0 2.484-.542.971-.542.971-1.445 0-.655-.564-1.016-.542-.384-1.422-.61-.858-.248-1.829-.452-.971-.226-1.851-.542-.858-.339-1.422-.903-.542-.587-.542-1.558 0-1.468 1.219-2.326 1.219-.881 3.251-.881 1.151 0 2.032.294.903.294 1.422.79.519.474.519 1.106 0 .045 0 .113 0 .068-.023.135-.045.406-.384.677-.316.271-.745.271-.497 0-.835-.339-.316-.339-.316-.79 0-.181.068-.384v-.068q0-.158-.113-.203-.722-.294-1.626-.294-1.31 0-2.19.519-.858.519-.858 1.377 0 .61.542.948.564.339 1.422.564.881.203 1.851.429.971.203 1.829.564.881.339 1.422.971.564.632.564 1.671 0 1.468-1.332 2.371-1.332.903-3.545.903z"/></defs></svg>