<?xml version="1.0" encoding="UTF-8" standalone="no"?>
<svg
   xmlns:dc="http://purl.org/dc/elements/1.1/"
   xmlns:cc="http://creativecommons.org/ns#"
   xmlns:rdf="http://www.w3.org/1999/02/22-rdf-syntax-ns#"
   xmlns:svg="http://www.w3.org/2000/svg"
   xmlns="http://www.w3.org/2000/svg"
   width="147.24573mm"
   height="16.763197mm"
   viewBox="0 0 147.24573 16.763197"
   version="1.1"
   id="svg8">
  <defs
     id="defs2">
    <rect
       x="41.547783"
       y="96.847389"
       width="183.89845"
       height="31.120863"
       id="rect12-2-7" />
  </defs>
  <metadata
     id="metadata5">
    <rdf:RDF>
      <cc:Work
         rdf:about="">
        <dc:format>image/svg+xml</dc:format>
        <dc:type
           rdf:resource="http://purl.org/dc/dcmitype/StillImage" />
        <dc:title></dc:title>
      </cc:Work>
    </rdf:RDF>
  </metadata>
  <g
     id="layer1"
     transform="translate(-26.654925,-181.49275)">
    <path
       id="path1074"
       style="fill:#ff0000;stroke-width:0.264583"
       d="m 149.25176,192.32991 a 5.5815678,5.5823631 0 0 1 -5.58156,5.58236 5.5815678,5.5823631 0 0 1 -5.58157,-5.58236 5.5815678,5.5823631 0 0 1 5.58157,-5.58236 5.5815678,5.5823631 0 0 1 5.58156,5.58236 z" />
    <g
       aria-label="Chris Parsons"
       transform="translate(-16.269196,78.444408)"
       id="text10-2-0"
       style="font-style:normal;font-weight:normal;font-size:22.5778px;line-height:1.25;font-family:sans-serif;letter-spacing:-0.854604px;white-space:pre;shape-inside:url(#rect12-2-7);fill:#ffffff;fill-opacity:1;stroke:none">
      <path
         d="m 50.871507,119.80928 q -1.64818,0 -3.093159,-0.63218 -1.422401,-0.65476 -2.528714,-1.80622 -1.083734,-1.15147 -1.715913,-2.66418 -0.6096,-1.51272 -0.6096,-3.22863 0,-1.73849 0.6096,-3.22862 0.632179,-1.51272 1.715913,-2.64161 1.083735,-1.15146 2.528714,-1.78364 1.444979,-0.65476 3.093159,-0.65476 3.070581,0 5.215472,2.00942 0.451556,0.42898 0.790223,0.92569 0.338667,0.47414 0.338667,1.03858 0,0.54187 -0.383823,0.92569 -0.361245,0.38383 -0.880534,0.38383 -0.541867,0 -0.903112,-0.38383 -0.361245,-0.4064 -0.361245,-0.90311 0,-0.45155 0.316089,-0.76764 0.135467,-0.13547 0.02258,-0.29352 -0.699912,-0.72249 -1.806224,-1.12889 -1.083734,-0.4064 -2.348091,-0.4064 -1.828802,0 -3.296359,0.90312 -1.467557,0.90311 -2.325514,2.48355 -0.835378,1.55787 -0.835378,3.52214 0,1.94169 0.835378,3.49956 0.857957,1.53529 2.325514,2.4384 1.467557,0.88054 3.296359,0.88054 1.625601,0 3.002847,-0.72249 1.399824,-0.74507 2.280358,-2.07716 0.09031,-0.15804 0.225778,-0.22578 0.158045,-0.0677 0.316089,-0.0677 0.203201,0 0.361245,0.13547 0.338667,0.27093 0.338667,0.67733 0,0.22578 -0.158044,0.47413 -1.128891,1.58045 -2.822226,2.46098 -1.670757,0.85796 -3.544714,0.85796 z"
         style="font-style:normal;font-variant:normal;font-weight:300;font-stretch:normal;font-size:22.5778px;font-family:'Kiwi Maru';-inkscape-font-specification:'Kiwi Maru Light';letter-spacing:-0.926042px;fill:#ffffff"
         id="path1078" />
      <path
         d="m 59.399214,119.7867 q -0.270934,0.0226 -0.474134,-0.15804 -0.2032,-0.18063 -0.2032,-0.47414 0,-0.29351 0.2032,-0.49671 0.2032,-0.2032 0.474134,-0.15804 l 0.993423,0.0677 h 0.04516 q 0.158045,0 0.158045,-0.18062 v -13.9305 q 0,-0.22578 -0.2032,-0.18063 l -1.016001,0.0677 q -0.293512,0.0226 -0.496712,-0.15805 -0.2032,-0.2032 -0.2032,-0.49671 0,-0.29351 0.2032,-0.47413 0.2032,-0.2032 0.474134,-0.15805 0.316089,0.0226 0.699912,0.0677 0.383822,0.0226 0.745067,0.0452 0.51929,0.0226 0.857957,0.38382 0.361244,0.33867 0.361244,0.83538 v 5.93796 q 0,0.13547 0.06773,0.15805 0.09031,0.0226 0.180622,-0.0677 2.438403,-2.30293 4.492983,-2.30293 2.889958,0 2.889958,3.88338 v 6.38952 q 0,0.22578 0.225778,0.18062 l 0.948268,-0.0677 q 0.270933,-0.0452 0.474134,0.15804 0.2032,0.2032 0.2032,0.49671 0,0.29351 -0.2032,0.47414 -0.203201,0.18062 -0.474134,0.15804 -0.745068,-0.0677 -1.151468,-0.0903 -0.4064,-0.0226 -0.745067,-0.0226 -0.428979,0 -0.835379,0.0226 -0.383823,0.0452 -1.061157,0.0903 -0.270933,0.0226 -0.474134,-0.15804 -0.2032,-0.18063 -0.2032,-0.47414 0,-0.29351 0.2032,-0.49671 0.203201,-0.2032 0.474134,-0.15804 l 0.970846,0.0677 h 0.04515 q 0.158045,0 0.158045,-0.18062 v -6.4121 q 0,-1.19662 -0.406401,-1.76107 -0.4064,-0.56444 -1.309512,-0.56444 -1.964269,0 -4.357516,2.19005 -0.112889,0.11288 -0.112889,0.27093 v 6.27663 q 0,0.2032 0.203201,0.18062 l 0.970845,-0.0677 q 0.270934,-0.0452 0.474134,0.15804 0.2032,0.2032 0.2032,0.49671 0,0.29351 -0.2032,0.47414 -0.2032,0.18062 -0.474134,0.15804 -0.722489,-0.0677 -1.12889,-0.0903 -0.4064,-0.0226 -0.767645,-0.0226 -0.406401,0 -0.812801,0.0226 -0.4064,0.0452 -1.083734,0.0903 z"
         style="font-style:normal;font-variant:normal;font-weight:300;font-stretch:normal;font-size:22.5778px;font-family:'Kiwi Maru';-inkscape-font-specification:'Kiwi Maru Light';letter-spacing:-0.926042px;fill:#ffffff"
         id="path1080" />
      <path
         d="m 73.275743,119.80928 q -0.270933,0.0226 -0.496711,-0.18062 -0.2032,-0.18063 -0.2032,-0.47414 0,-0.31609 0.2032,-0.49671 0.2032,-0.2032 0.496711,-0.15804 l 1.061157,0.0677 h 0.04516 q 0.158044,0 0.158044,-0.18062 V 109.717 q 0,-0.2032 -0.2032,-0.2032 -0.270934,0.0226 -0.541867,0.0452 -0.270934,0 -0.51929,0.0452 -0.316089,0.0226 -0.564445,-0.18062 -0.225778,-0.22578 -0.225778,-0.56444 0,-0.31609 0.248356,-0.54187 0.248356,-0.22578 0.541867,-0.18062 0.474134,0.0451 0.72249,0.0677 0.270934,0.0226 0.541867,0.0226 0.270934,0 0.72249,0 0.316089,0 0.496711,0.2032 0.203201,0.2032 0.203201,0.49671 v 1.80622 q 0,0.18063 0.09031,0.18063 0.09031,0 0.158044,-0.11289 1.490135,-2.48356 3.973693,-2.79965 0.135467,-0.0226 0.270934,-0.0226 0.135467,-0.0226 0.270934,-0.0226 0.767645,0 1.241779,0.36125 0.474133,0.33867 0.474133,0.99342 0,0.45156 -0.338667,0.79023 -0.316089,0.31608 -0.835378,0.31608 -0.428978,0 -0.699912,-0.22577 -0.248356,-0.24836 -0.338667,-0.49672 -0.06773,-0.18062 -0.225778,-0.18062 -0.880534,0 -1.670757,0.63218 -0.767645,0.6096 -1.377246,1.58045 -0.587023,0.94826 -0.948268,2.00942 -0.04515,0.0903 -0.04515,0.24836 v 4.40267 q 0,0.2032 0.2032,0.18062 l 1.083734,-0.0677 q 0.293512,-0.0452 0.496712,0.15804 0.2032,0.18062 0.2032,0.49671 0,0.29351 -0.225778,0.47414 -0.2032,0.2032 -0.474134,0.18062 -0.699912,-0.0677 -1.151468,-0.11289 -0.428978,-0.0226 -0.835378,-0.0226 -0.474134,0 -0.903112,0.0226 -0.428978,0.0452 -1.083735,0.11289 z"
         style="letter-spacing:-0.661458px;fill:#ffffff"
         id="path1082" />
      <path
         d="m 85.978225,105.87878 q -0.496711,0 -0.857956,-0.36125 -0.361245,-0.36124 -0.361245,-0.85795 0,-0.51929 0.361245,-0.85796 0.361245,-0.36125 0.857956,-0.36125 0.51929,0 0.857957,0.36125 0.361244,0.33867 0.361244,0.85796 0,0.49671 -0.361244,0.85795 -0.338667,0.36125 -0.857957,0.36125 z m -1.986846,13.9305 q -0.31609,0.0226 -0.564445,-0.2032 -0.225778,-0.2032 -0.225778,-0.54187 0,-0.33866 0.225778,-0.56444 0.248355,-0.22578 0.564445,-0.18063 0.248355,0.0226 0.496711,0.0452 0.270934,0.0226 0.541868,0.0677 0.225778,0 0.225778,-0.2032 V 109.717 q 0,-0.2032 -0.203201,-0.2032 -0.270933,0.0226 -0.541867,0.0452 -0.270934,0 -0.519289,0.0452 -0.31609,0.0226 -0.564445,-0.18062 -0.225778,-0.22578 -0.225778,-0.56444 0,-0.31609 0.2032,-0.51929 0.225778,-0.22578 0.519289,-0.22578 0,0 -0.06773,-0.0226 -0.02258,0 -0.06773,0 0.04516,0 0.06773,0 0.428978,0.0452 0.948268,0.0903 0.541867,0.0452 0.677334,0.0452 0.519289,0 0.857956,0.36124 0.361245,0.33867 0.361245,0.85796 v 8.78276 q 0,0.2032 0.225778,0.2032 0.270933,-0.0451 0.541867,-0.0677 0.270934,-0.0226 0.496712,-0.0452 0.316089,-0.0452 0.541867,0.18063 0.225778,0.22578 0.225778,0.56444 0,0.33867 -0.225778,0.54187 -0.225778,0.22578 -0.541867,0.2032 -0.451556,-0.0452 -0.993424,-0.0903 -0.519289,-0.0452 -0.993423,-0.0452 -0.474134,0 -1.016001,0.0452 -0.519289,0.0452 -0.970845,0.0903 z"
         style="font-style:normal;font-variant:normal;font-weight:300;font-stretch:normal;font-size:22.5778px;font-family:'Kiwi Maru';-inkscape-font-specification:'Kiwi Maru Light';letter-spacing:-0.926042px;fill:#ffffff"
         id="path1084" />
      <path
         d="m 94.805443,119.7867 q -0.857956,0 -1.715913,-0.2032 -0.857956,-0.18062 -1.580446,-0.51929 -0.722489,-0.36124 -1.174045,-0.85795 -0.428979,-0.49672 -0.428979,-1.08374 0,-0.49671 0.338667,-0.83538 0.338667,-0.33866 0.812801,-0.33866 0.51929,0 0.835379,0.36124 0.316089,0.36125 0.316089,0.8128 0,0.2032 -0.06773,0.4064 -0.02258,0.0452 -0.02258,0.0903 0,0.11289 0.112889,0.18063 0.519289,0.22577 1.174045,0.42897 0.654757,0.2032 1.399824,0.2032 1.535291,0 2.483558,-0.54186 0.970846,-0.54187 0.970846,-1.44498 0,-0.65476 -0.564445,-1.016 -0.541868,-0.38383 -1.422402,-0.6096 -0.857956,-0.24836 -1.828802,-0.45156 -0.970845,-0.22578 -1.851379,-0.54187 -0.857957,-0.33866 -1.422402,-0.90311 -0.541867,-0.58702 -0.541867,-1.55787 0,-1.46755 1.219201,-2.32551 1.219201,-0.88054 3.251204,-0.88054 1.151467,0 2.032002,0.29352 0.903112,0.29351 1.422401,0.79022 0.519289,0.47413 0.519289,1.10631 0,0.0452 0,0.11289 0,0.0677 -0.02258,0.13547 -0.04516,0.4064 -0.383823,0.67733 -0.316089,0.27093 -0.745067,0.27093 -0.496712,0 -0.835379,-0.33866 -0.316089,-0.33867 -0.316089,-0.79023 0,-0.18062 0.06773,-0.38382 v -0.0677 q 0,-0.15805 -0.112889,-0.2032 -0.722489,-0.29351 -1.625601,-0.29351 -1.309513,0 -2.190047,0.51929 -0.857957,0.51929 -0.857957,1.37724 0,0.6096 0.541868,0.94827 0.564445,0.33867 1.422401,0.56444 0.880534,0.2032 1.85138,0.42898 0.970845,0.2032 1.828802,0.56445 0.880534,0.33867 1.422401,0.97084 0.564445,0.63218 0.564445,1.67076 0,1.46756 -1.33209,2.37067 -1.33209,0.90311 -3.544715,0.90311 z"
         style="font-style:normal;font-variant:normal;font-weight:300;font-stretch:normal;font-size:22.5778px;font-family:'Kiwi Maru';-inkscape-font-specification:'Kiwi Maru Light';letter-spacing:-0.926042px;fill:#ffffff"
         id="path1086" />
      <path
         d="m 107.62963,119.7867 q -0.29351,0.0226 -0.54186,-0.2032 -0.24836,-0.2032 -0.24836,-0.51929 0,-0.33866 0.22578,-0.56444 0.24835,-0.22578 0.56444,-0.18063 0.2032,0.0226 0.42898,0.0452 0.24836,0.0226 0.49671,0.0452 h 0.0452 q 0.15804,0 0.15804,-0.2032 V 104.8402 q 0,-0.2032 -0.2032,-0.2032 -0.22578,0.0226 -0.45155,0.0451 -0.2032,0.0226 -0.4064,0.0677 -0.33867,0.0452 -0.6096,-0.18063 -0.24836,-0.24835 -0.24836,-0.58702 0,-0.36124 0.24836,-0.58702 0.27093,-0.24836 0.6096,-0.2032 0.45155,0.0677 0.94826,0.13547 0.51929,0.0452 0.97085,0.0452 h 3.99627 q 2.95769,0 4.53814,1.26436 1.60302,1.26435 1.60302,3.54471 0,2.28036 -1.58044,3.54472 -1.55787,1.26435 -4.3801,1.26435 h -3.34151 q -0.2032,0 -0.2032,0.2032 v 5.05743 q 0,0.2032 0.2032,0.2032 l 1.37724,-0.13547 q 0.31609,-0.0452 0.54187,0.2032 0.22578,0.22578 0.22578,0.54187 0,0.31609 -0.24836,0.51929 -0.22577,0.22578 -0.51929,0.2032 -0.67733,-0.0451 -1.19662,-0.0903 -0.49671,-0.0226 -0.94827,-0.0226 -0.45155,0 -0.92569,0.0226 -0.47413,0.0452 -1.12889,0.0903 z m 2.82223,-8.2409 h 3.54471 q 4.35752,0 4.35752,-3.36409 0,-1.6256 -1.08374,-2.48356 -1.06115,-0.88053 -3.13831,-0.90311 h -3.68018 q -0.2032,0 -0.2032,0.2032 v 6.34436 q 0,0.2032 0.2032,0.2032 z"
         style="letter-spacing:-1.45521px;fill:#ffffff"
         id="path1088" />
      <path
         d="m 123.76076,119.7867 q -1.46755,0 -2.41582,-0.83538 -0.92569,-0.85795 -0.92569,-2.16747 0,-1.67075 1.10631,-2.57386 1.12889,-0.92569 2.86738,-0.92569 1.49014,0 3.25121,0.72248 0.0452,0.0226 0.11288,0.0226 0.13547,0 0.13547,-0.15804 v -1.12889 q 0,-1.55787 -0.83538,-2.41583 -0.8128,-0.85795 -2.07715,-0.85795 -0.83538,0 -1.76107,0.4064 -0.15805,0.0903 -0.0903,0.27093 0.0903,0.2032 0.0903,0.45156 0,0.45155 -0.33867,0.79022 -0.31609,0.33867 -0.8128,0.33867 -0.54187,0 -0.85796,-0.36125 -0.31609,-0.38382 -0.31609,-0.88053 0,-0.51929 0.36125,-0.94827 0.58702,-0.67733 1.46756,-1.03858 0.90311,-0.38382 1.91911,-0.38382 2.2352,0 3.43182,1.2192 1.21921,1.19662 1.21921,3.40925 v 5.57671 q 0,0.2032 0.2032,0.2032 0.29351,-0.0226 0.56444,-0.0903 0.27093,-0.0903 0.51929,-0.0903 0.29351,0 0.47413,0.2032 0.2032,0.2032 0.2032,0.51929 0,0.33867 -0.24835,0.54187 -0.24836,0.22578 -0.56445,0.18062 -0.29351,-0.0677 -0.63218,-0.11289 -0.33866,-0.0452 -0.69991,-0.0677 -0.51929,0 -0.88053,-0.36125 -0.33867,-0.36124 -0.33867,-0.85795 0,-0.0226 -0.0226,-0.0226 0,0 0,0 -0.0677,0 -0.22577,0.11289 -0.79023,0.63218 -1.71592,0.97084 -0.90311,0.33867 -2.16747,0.33867 z m 0,-1.35467 q 1.33209,-0.0451 2.23521,-0.42897 0.92569,-0.4064 1.80622,-1.33209 0.0903,-0.11289 0.0903,-0.24836 v -0.8128 q 0,-0.15805 -0.13547,-0.22578 -0.49671,-0.27093 -1.28693,-0.54187 -0.76765,-0.27093 -1.98685,-0.27093 -1.26435,0 -2.00942,0.58702 -0.72249,0.58703 -0.72249,1.6256 0,0.72249 0.56444,1.19663 0.56445,0.45155 1.44498,0.45155 z"
         style="font-style:normal;font-variant:normal;font-weight:300;font-stretch:normal;font-size:22.5778px;font-family:'Kiwi Maru';-inkscape-font-specification:'Kiwi Maru Light';letter-spacing:-0.926042px;fill:#ffffff"
         id="path1090" />
      <path
         d="m 132.98344,119.80928 q -0.27093,0.0226 -0.49671,-0.18062 -0.2032,-0.18063 -0.2032,-0.47414 0,-0.31609 0.2032,-0.49671 0.2032,-0.2032 0.49671,-0.15804 l 1.06116,0.0677 h 0.0452 q 0.15804,0 0.15804,-0.18062 V 109.717 q 0,-0.2032 -0.2032,-0.2032 -0.27093,0.0226 -0.54187,0.0452 -0.27093,0 -0.51929,0.0452 -0.31609,0.0226 -0.56444,-0.18062 -0.22578,-0.22578 -0.22578,-0.56444 0,-0.31609 0.24836,-0.54187 0.24835,-0.22578 0.54186,-0.18062 0.47414,0.0451 0.72249,0.0677 0.27094,0.0226 0.54187,0.0226 0.27093,0 0.72249,0 0.31609,0 0.49671,0.2032 0.2032,0.2032 0.2032,0.49671 v 1.80622 q 0,0.18063 0.0903,0.18063 0.0903,0 0.15805,-0.11289 1.49013,-2.48356 3.97369,-2.79965 0.13547,-0.0226 0.27093,-0.0226 0.13547,-0.0226 0.27094,-0.0226 0.76764,0 1.24178,0.36125 0.47413,0.33867 0.47413,0.99342 0,0.45156 -0.33867,0.79023 -0.31608,0.31608 -0.83537,0.31608 -0.42898,0 -0.69992,-0.22577 -0.24835,-0.24836 -0.33866,-0.49672 -0.0677,-0.18062 -0.22578,-0.18062 -0.88054,0 -1.67076,0.63218 -0.76764,0.6096 -1.37724,1.58045 -0.58703,0.94826 -0.94827,2.00942 -0.0452,0.0903 -0.0452,0.24836 v 4.40267 q 0,0.2032 0.2032,0.18062 l 1.08374,-0.0677 q 0.29351,-0.0452 0.49671,0.15804 0.2032,0.18062 0.2032,0.49671 0,0.29351 -0.22578,0.47414 -0.2032,0.2032 -0.47413,0.18062 -0.69991,-0.0677 -1.15147,-0.11289 -0.42898,-0.0226 -0.83538,-0.0226 -0.47413,0 -0.90311,0.0226 -0.42898,0.0452 -1.08374,0.11289 z"
         style="font-style:normal;font-variant:normal;font-weight:300;font-stretch:normal;font-size:22.5778px;font-family:'Kiwi Maru';-inkscape-font-specification:'Kiwi Maru Light';letter-spacing:-0.926042px;fill:#ffffff"
         id="path1092" />
      <path
         d="m 147.63397,119.7867 q -0.85795,0 -1.71591,-0.2032 -0.85796,-0.18062 -1.58045,-0.51929 -0.72249,-0.36124 -1.17404,-0.85795 -0.42898,-0.49672 -0.42898,-1.08374 0,-0.49671 0.33867,-0.83538 0.33866,-0.33866 0.8128,-0.33866 0.51929,0 0.83538,0.36124 0.31609,0.36125 0.31609,0.8128 0,0.2032 -0.0677,0.4064 -0.0226,0.0452 -0.0226,0.0903 0,0.11289 0.11289,0.18063 0.51929,0.22577 1.17405,0.42897 0.65476,0.2032 1.39982,0.2032 1.53529,0 2.48356,-0.54186 0.97085,-0.54187 0.97085,-1.44498 0,-0.65476 -0.56445,-1.016 -0.54187,-0.38383 -1.4224,-0.6096 -0.85796,-0.24836 -1.8288,-0.45156 -0.97085,-0.22578 -1.85138,-0.54187 -0.85796,-0.33866 -1.4224,-0.90311 -0.54187,-0.58702 -0.54187,-1.55787 0,-1.46755 1.2192,-2.32551 1.2192,-0.88054 3.2512,-0.88054 1.15147,0 2.03201,0.29352 0.90311,0.29351 1.4224,0.79022 0.51929,0.47413 0.51929,1.10631 0,0.0452 0,0.11289 0,0.0677 -0.0226,0.13547 -0.0452,0.4064 -0.38382,0.67733 -0.31609,0.27093 -0.74507,0.27093 -0.49671,0 -0.83538,-0.33866 -0.31609,-0.33867 -0.31609,-0.79023 0,-0.18062 0.0677,-0.38382 v -0.0677 q 0,-0.15805 -0.11288,-0.2032 -0.72249,-0.29351 -1.62561,-0.29351 -1.30951,0 -2.19004,0.51929 -0.85796,0.51929 -0.85796,1.37724 0,0.6096 0.54187,0.94827 0.56444,0.33867 1.4224,0.56444 0.88053,0.2032 1.85138,0.42898 0.97084,0.2032 1.8288,0.56445 0.88054,0.33867 1.4224,0.97084 0.56445,0.63218 0.56445,1.67076 0,1.46756 -1.33209,2.37067 -1.33209,0.90311 -3.54472,0.90311 z"
         style="font-style:normal;font-variant:normal;font-weight:300;font-stretch:normal;font-size:22.5778px;font-family:'Kiwi Maru';-inkscape-font-specification:'Kiwi Maru Light';letter-spacing:-0.926042px;fill:#ffffff"
         id="path1094" />
      <path
         d="m 159.89371,119.80928 q -1.64818,0 -3.00284,-0.79022 -1.35467,-0.79023 -2.16747,-2.12232 -0.79023,-1.33209 -0.79023,-2.93511 0,-1.6256 0.79023,-2.93511 0.8128,-1.3321 2.16747,-2.12232 1.35466,-0.79022 3.00284,-0.79022 1.2192,0 2.30294,0.47413 1.08373,0.45156 1.89653,1.26436 0.8128,0.79022 1.26436,1.85138 0.47413,1.06116 0.47413,2.25778 0,1.19662 -0.47413,2.25778 -0.45156,1.06116 -1.26436,1.87396 -0.8128,0.79022 -1.89653,1.26435 -1.08374,0.45156 -2.30294,0.45156 z m 0,-1.33209 q 1.28694,0 2.30294,-0.58702 1.03858,-0.6096 1.6256,-1.62561 0.6096,-1.03857 0.6096,-2.30293 0,-1.26436 -0.6096,-2.28036 -0.6096,-1.016 -1.64818,-1.6256 -1.016,-0.6096 -2.28036,-0.6096 -1.28693,0 -2.32551,0.6096 -1.016,0.58702 -1.6256,1.60302 -0.6096,1.016 -0.6096,2.30294 0,1.26436 0.6096,2.30293 0.6096,1.01601 1.64818,1.62561 1.03858,0.58702 2.30293,0.58702 z"
         style="font-style:normal;font-variant:normal;font-weight:300;font-stretch:normal;font-size:22.5778px;font-family:'Kiwi Maru';-inkscape-font-specification:'Kiwi Maru Light';letter-spacing:-0.926042px;fill:#ffffff"
         id="path1096" />
      <path
         d="m 167.22339,119.7867 q -0.27093,0.0226 -0.47413,-0.15804 -0.20321,-0.18063 -0.20321,-0.47414 0,-0.29351 0.20321,-0.49671 0.2032,-0.2032 0.47413,-0.15804 l 0.99342,0.0677 h 0.0452 q 0.15804,0 0.15804,-0.18062 v -8.8505 q 0,-0.22578 -0.2032,-0.18062 l -1.016,0.0677 q -0.27093,0.0226 -0.49671,-0.15804 -0.2032,-0.2032 -0.2032,-0.49671 0,-0.29352 0.2032,-0.49672 0.22578,-0.2032 0.47413,-0.15804 0.31609,0.0226 0.69992,0.0677 0.38382,0.0226 0.74506,0.0452 0.51929,0.0226 0.85796,0.38382 0.36124,0.36125 0.36124,0.85796 v 0.85795 q 0,0.13547 0.0677,0.15805 0.0903,0.0226 0.18062,-0.0677 2.4384,-2.30293 4.49298,-2.30293 2.88996,0 2.88996,3.88338 v 6.38952 q 0,0.22578 0.22578,0.18062 l 0.94827,-0.0677 q 0.27093,-0.0452 0.47413,0.15804 0.2032,0.2032 0.2032,0.49671 0,0.29351 -0.2032,0.47414 -0.2032,0.18062 -0.47413,0.15804 -0.72249,-0.0677 -1.12889,-0.0903 -0.4064,-0.0226 -0.76765,-0.0226 -0.4064,0 -0.8128,0.0226 -0.4064,0.0452 -1.08373,0.0903 -0.27094,0.0226 -0.47414,-0.15804 -0.2032,-0.18063 -0.2032,-0.47414 0,-0.29351 0.2032,-0.49671 0.2032,-0.2032 0.47414,-0.15804 l 0.97084,0.0677 h 0.0452 q 0.15804,0 0.15804,-0.18062 v -6.4121 q 0,-1.19662 -0.4064,-1.76107 -0.4064,-0.56444 -1.30951,-0.56444 -1.96427,0 -4.35752,2.19005 -0.11289,0.11288 -0.11289,0.27093 v 6.27663 q 0,0.2032 0.2032,0.18062 l 0.97085,-0.0677 q 0.27093,-0.0452 0.47413,0.15804 0.2032,0.2032 0.2032,0.49671 0,0.29351 -0.2032,0.47414 -0.2032,0.18062 -0.47413,0.15804 -0.72249,-0.0677 -1.12889,-0.0903 -0.4064,-0.0226 -0.76765,-0.0226 -0.4064,0 -0.8128,0.0226 -0.4064,0.0452 -1.08373,0.0903 z"
         style="font-style:normal;font-variant:normal;font-weight:300;font-stretch:normal;font-size:22.5778px;font-family:'Kiwi Maru';-inkscape-font-specification:'Kiwi Maru Light';letter-spacing:-0.926042px;fill:#ffffff"
         id="path1098" />
      <path
         d="m 185.29304,119.7867 q -0.85796,0 -1.71592,-0.2032 -0.85795,-0.18062 -1.58044,-0.51929 -0.72249,-0.36124 -1.17405,-0.85795 -0.42898,-0.49672 -0.42898,-1.08374 0,-0.49671 0.33867,-0.83538 0.33867,-0.33866 0.8128,-0.33866 0.51929,0 0.83538,0.36124 0.31609,0.36125 0.31609,0.8128 0,0.2032 -0.0677,0.4064 -0.0226,0.0452 -0.0226,0.0903 0,0.11289 0.11289,0.18063 0.51929,0.22577 1.17404,0.42897 0.65476,0.2032 1.39983,0.2032 1.53529,0 2.48356,-0.54186 0.97084,-0.54187 0.97084,-1.44498 0,-0.65476 -0.56444,-1.016 -0.54187,-0.38383 -1.42241,-0.6096 -0.85795,-0.24836 -1.8288,-0.45156 -0.97084,-0.22578 -1.85138,-0.54187 -0.85795,-0.33866 -1.4224,-0.90311 -0.54187,-0.58702 -0.54187,-1.55787 0,-1.46755 1.21921,-2.32551 1.2192,-0.88054 3.2512,-0.88054 1.15147,0 2.032,0.29352 0.90311,0.29351 1.4224,0.79022 0.51929,0.47413 0.51929,1.10631 0,0.0452 0,0.11289 0,0.0677 -0.0226,0.13547 -0.0451,0.4064 -0.38382,0.67733 -0.31609,0.27093 -0.74507,0.27093 -0.49671,0 -0.83537,-0.33866 -0.31609,-0.33867 -0.31609,-0.79023 0,-0.18062 0.0677,-0.38382 v -0.0677 q 0,-0.15805 -0.11289,-0.2032 -0.72249,-0.29351 -1.6256,-0.29351 -1.30951,0 -2.19005,0.51929 -0.85795,0.51929 -0.85795,1.37724 0,0.6096 0.54186,0.94827 0.56445,0.33867 1.4224,0.56444 0.88054,0.2032 1.85138,0.42898 0.97085,0.2032 1.82881,0.56445 0.88053,0.33867 1.4224,0.97084 0.56444,0.63218 0.56444,1.67076 0,1.46756 -1.33209,2.37067 -1.33209,0.90311 -3.54471,0.90311 z"
         style="font-style:normal;font-variant:normal;font-weight:300;font-stretch:normal;font-size:22.5778px;font-family:'Kiwi Maru';-inkscape-font-specification:'Kiwi Maru Light';letter-spacing:-0.926042px;fill:#ffffff"
         id="path1100" />
    </g>
    <g
       id="g137"
       transform="translate(0.47491563,-0.19960388)"
       style="fill:#ffffff">
      <path
         id="path105"
         style="fill:#ffffff;stroke-width:0.264583"
         d="m 146.07276,190.69261 a 1.2,1.2 0 0 1 -1.2,1.2 1.2,1.2 0 0 1 -1.2,-1.2 1.2,1.2 0 0 1 1.2,-1.2 1.2,1.2 0 0 1 1.2,1.2 z" />
      <path
         id="rect131"
         transform="matrix(0.70076722,0.71339001,-0.70076722,0.71339001,0,0)"
         d="m 237.13378,30.869476 a 0.70594644,0.70594644 52.660419 0 1 0.60554,0.79375 v 4.119262 a 0.79375,0.79375 135 0 1 -0.79375,0.79375 0.70594644,0.70594644 52.660419 0 1 -0.60554,-0.79375 l 0,-4.119262 a 0.79375,0.79375 135 0 1 0.79375,-0.79375 z"
         style="stroke-width:0.202615;fill:#ffffff" />
    </g>
  </g>
</svg>
