<svg xmlns="http://www.w3.org/2000/svg" width="512" height="512" viewBox="0 0 135.467 135.467"><path style="fill:red;stroke-width:.264583" d="M149.252 192.33a5.582 5.582 0 0 1-5.582 5.582 5.582 5.582 0 0 1-5.581-5.582 5.582 5.582 0 0 1 5.581-5.582 5.582 5.582 0 0 1 5.582 5.582z" transform="matrix(11.38519 0 0 11.583 -1567.33 -2160.906)"/><path d="M143.625 198.254q-1.649 0-3.003-.79-1.355-.79-2.168-2.123-.79-1.332-.79-2.935 0-1.626.79-2.935.813-1.332 2.168-2.122 1.354-.79 3.003-.79 1.219 0 2.302.474 1.084.451 1.897 1.264.813.79 1.264 1.851.474 1.061.474 2.258t-.474 2.258q-.451 1.061-1.264 1.874-.813.79-1.897 1.264-1.083.452-2.302.452zm0-1.332q1.286 0 2.302-.587 1.039-.61 1.626-1.626.61-1.039.61-2.303t-.61-2.28q-.61-1.016-1.648-1.626-1.016-.61-2.28-.61-1.287 0-2.326.61-1.016.587-1.626 1.603-.61 1.016-.61 2.303 0 1.264.61 2.303.61 1.016 1.649 1.626 1.038.587 2.303.587z" style="font-style:normal;font-variant:normal;font-weight:300;font-stretch:normal;font-size:22.5778px;line-height:1.25;font-family:'Kiwi Maru';-inkscape-font-specification:'Kiwi Maru Light';letter-spacing:-.926042px;white-space:pre;fill:#fff;fill-opacity:1;stroke:none" transform="matrix(11.38519 0 0 11.583 -1567.33 -2160.906)"/><g style="fill:#fff"><path style="fill:#fff;stroke-width:.264583" d="M146.073 190.693a1.2 1.2 0 0 1-1.2 1.2 1.2 1.2 0 0 1-1.2-1.2 1.2 1.2 0 0 1 1.2-1.2 1.2 1.2 0 0 1 1.2 1.2z" transform="matrix(11.38519 0 0 11.583 -1561.923 -2163.218)"/><path transform="matrix(7.97837 8.2632 -7.97837 8.2632 -1561.928 -2163.219)" d="M237.134 30.87a.706.706 52.66 0 1 .605.793v4.12a.794.794 135 0 1-.793.793.706.706 52.66 0 1-.606-.794v-4.119a.794.794 135 0 1 .794-.794z" style="fill:#fff;stroke-width:.202615"/></g></svg>